# xmcd
#
# Track frame offsets: 
#        150
#        16632
#        30688
#        45330
#        63221
#        80268
#        97243
#        110207
#        130864
#        145565
#        164290
#        179613
#        194972
#        207225
#        229041
#        241176
#        260903
#        277024
#        294144
#        313290
#
# Disc length: 4298 seconds
#
# Revision: 0
# Processed by: cddbd v1.5.2PL0 Copyright (c) Steve Scherf et al.
# Submitted via: ExactAudioCopyFreeDBPlugin 1.0
#
DISCID=2510c814
DTITLE=Various Artist - NOW That's What I Call Country Christmas
DYEAR=2019
DGENRE=Country
TTITLE0=Blake Shelton - Christmas Eve
TTITLE1=Mitchell Tenpenny - Have Yourself A Merry Little Christmas
TTITLE2=Luke Bryan - O Holy Night
TTITLE3=Toby Keith - Frosty The Snowman
TTITLE4=Hunter Hayes - Merry Christmas Baby
TTITLE5=Little Big Town - Go Tell It On The Mountain
TTITLE6=Jake Owen - Mele Kalikimaka
TTITLE7=Kenny Chesney - All I Want For Christmas Is A Real Good Tan
TTITLE8=George Strait - Christmas Cookies
TTITLE9=Alan Jackson - Let It Be Christmas
TTITLE10=Carrie Underwood - What Child Is This
TTITLE11=Rascal Flatts - I'll Be Home For Christmas
TTITLE12=Chris Young - Christmas (Baby Please Come Home)
TTITLE13=Sara Evans - Silent Night
TTITLE14=Martina McBride - Silver Bells
TTITLE15=Josh Turner - The First Noel
TTITLE16=Darius Rucker - What God Wants For Christmas
TTITLE17=Vince Gill - Blue Christmas
TTITLE18=Lauren Alaina - My Grown Up Christmas List
TTITLE19=Scotty McCreery - Let It Snow
EXTD=
EXTT0=
EXTT1=
EXTT2=
EXTT3=
EXTT4=
EXTT5=
EXTT6=
EXTT7=
EXTT8=
EXTT9=
EXTT10=
EXTT11=
EXTT12=
EXTT13=
EXTT14=
EXTT15=
EXTT16=
EXTT17=
EXTT18=
EXTT19=
PLAYORDER=
